<svg xmlns="http://www.w3.org/2000/svg" version="1.1" xmlns:xlink="http://www.w3.org/1999/xlink" xmlns:svgjs="http://svgjs.dev/svgjs" width="100%" height="100%" viewBox="0 0 1000 600"><rect width="1000" height="600" x="0" y="0" fill="white"/><g><circle r="166.66666666666666" cx="378.83959452311194" cy="401.0618376271128" fill="purple" transform="matrix(0.5891420657023813,0,0,0.5891420657023813,0,63.7176059569985)"/><path d="M307.7389063988776 476.06184302941875L307.7389063988776 476.06184302941875Q294.8451684451232 476.06184302941875 285.5093052026696 470.8531144520743Q276.2019049579065 465.6159228770394 270.1392864498498 456.5077636161091Q264.1051309394835 447.3711413574884 261.34422016351397 435.7867012974927Q258.5548463898541 424.2307242351874 258.9817913552102 411.70700525140825L258.9817913552102 411.70700525140825Q259.807218288232 389.392015062129 267.1791346900474 373.1965693762874Q274.55105109186286 357.00112369044575 285.8223981772641 346.5552035380663Q297.0937452626653 336.10928338568687 310.10133520718136 331.0713327944848Q323.10892515169746 326.06184520097315 335.2056991701205 326.06184520097315L335.2056991701205 326.06184520097315Q345.4523783386671 326.06184520097315 353.76357366426595 329.4489419261316Q362.04630599217444 332.80757565359966 366.9704045926149 339.2686761293221Q371.8945031930553 345.7297766050445 371.8945031930553 354.9517878567364L371.8945031930553 354.9517878567364Q371.8945031930553 362.124463274719 367.68197953487504 368.7848047342743Q363.4979188743852 375.44514619382954 354.98748256495344 379.6576698520098Q346.4770462555217 383.8417305124997 333.1563633364112 383.8417305124997L333.1563633364112 383.8417305124997Q335.40494015395336 377.295241043706 336.429608070808 372.37114244326557Q337.45427598766264 367.44704384282517 337.45427598766264 363.9745581245955L337.45427598766264 363.9745581245955Q337.45427598766264 356.8018827066129 334.1810312532658 354.2402129144763Q330.907786518869 351.6785431223396 325.9836879184286 351.6785431223396L325.9836879184286 351.6785431223396Q320.0349214011335 351.6785431223396 314.7123408330274 355.97645577359106Q309.3897602649212 360.2743684248425 305.17723660674096 367.5608958335868Q300.9931759462511 374.8189602446406 298.51689514718566 383.64248952866683Q296.0690773458107 392.466018812693 295.670595378145 401.4603260828617L295.670595378145 401.4603260828617Q294.8451684451232 424.2307242351874 302.21708484693863 435.90055328825434Q309.5890012487541 447.57038234132125 321.2872932995114 447.57038234132125L321.2872932995114 447.57038234132125Q330.28160056968005 447.57038234132125 341.26831767817725 440.1984659395058Q352.22657178898396 432.82654953769037 362.8717329251963 417.8550127525362L362.8717329251963 417.8550127525362L365.54725470809456 419.10738465091407Q362.8717329251963 437.5514071542979 353.8489626573372 450.2459041242195Q344.8546553871685 462.9404010941411 332.6440293779839 469.5153535606251Q320.46186636648963 476.06184302941875 307.7389063988776 476.06184302941875ZM425.57571683716316 475.66336106175305L425.57571683716316 475.66336106175305Q419.22846835220236 475.66336106175305 414.41822174252354 472.3901163273562Q409.6079751328448 469.088408595269 409.80721611667764 462.5419191264754L409.80721611667764 462.5419191264754Q410.20569808434334 451.0713310572413 411.5434589757924 437.12446218894183Q412.8812198672416 423.20605631833274 414.73131471711804 408.7468534916059Q416.58140956699447 394.2876506648791 418.5168934099422 380.96696774576856Q420.45237725288985 367.646284826658 422.10323111893354 357.2003646742786L422.10323111893354 357.2003646742786Q418.40304141918057 356.8018827066129 414.9305557009509 356.60264172278005Q411.4580699827212 356.37493774125676 408.5833072159901 356.37493774125676L408.5833072159901 356.37493774125676Q399.9590189157967 356.37493774125676 393.09943647240857 358.0257916073004Q386.23985402902053 359.67664547334397 381.5149964124129 363.77531714076264L381.5149964124129 363.77531714076264Q381.5149964124129 350.8531161893178 383.67818423688385 342.76962484524216Q385.84137206135483 334.65767050347614 391.6762865878883 330.9859438014136Q397.51120111442174 327.2857541016607 408.78254819982294 327.2857541016607L408.78254819982294 327.2857541016607Q416.97989153466017 327.2857541016607 427.11271871244514 328.62351499310984Q437.2740088879205 329.961275884559 447.7199290402999 331.3844257690793Q458.1658491926794 332.80757565359966 467.18861946053835 332.80757565359966L467.18861946053835 332.80757565359966Q474.56053586235385 332.80757565359966 480.3954503888873 331.3844257690793Q486.2588279131112 329.961275884559 489.33283166367517 326.261086184806L489.33283166367517 326.261086184806Q493.8299852987594 327.6842360693264 496.2778031001345 332.5229456766956Q498.7540838991999 337.33319228637436 498.7540838991999 343.0542548221462L498.7540838991999 343.0542548221462Q498.7540838991999 348.17759440641953 496.50550708165775 353.0163040137887Q494.2284672664252 357.82655062346754 489.33283166367517 360.9859433671027Q484.40873306323476 364.17379910842834 476.01214874456457 364.17379910842834L476.01214874456457 364.17379910842834Q472.11271806097886 364.17379910842834 466.4770445182782 363.46222416616814Q460.84137097557766 362.75064922390794 454.49412249061686 361.92522229088615L454.49412249061686 361.92522229088615Q452.2170826753843 374.22123729314205 449.88311686477084 391.32749890507677Q447.52068805646707 408.4337605170114 445.98368618118513 428.10169192108276Q444.4466843059031 447.7980863228445 444.01973934054695 468.0637406784144L444.01973934054695 468.0637406784144Q440.3480126384845 471.96317136200014 435.31006204728243 473.8132662118766Q430.30057445377076 475.66336106175305 425.57571683716316 475.66336106175305Z " fill="white" transform="matrix(0.5891420657023813,0,0,0.5891420657023813,0,63.7176059569985)"/><path d="M644.7595161703609 444.55693227261725L644.7595161703609 444.55693227261725Q639.2891381064942 444.55693227261725 634.9574918028609 440.4485667062846Q630.6035174254974 436.3625292136821 630.6035174254974 426.53817677245183L630.6035174254974 426.53817677245183Q630.6035174254974 420.10769153819206 632.4567475450931 412.2482095852079Q634.3099776646889 404.36639955849364 636.967018438567 395.9263876885277Q639.6017311387152 387.4863758185617 642.3480842075136 379.6045657918475Q645.0721092025819 371.7227557651333 646.8360270272574 365.2922705308735Q648.6222729256629 358.86178529661373 648.6222729256629 355.1776531311524L648.6222729256629 355.1776531311524Q648.6222729256629 350.823678753789 645.2284057186924 350.823678753789L645.2284057186924 350.823678753789Q641.20935244728 350.823678753789 637.6815167979291 355.4009338684531Q634.1536811485784 360.00051705684723 629.7997067712149 368.19492011578245L629.7997067712149 368.19492011578245L628.8395996008221 367.85999900983137Q628.8395996008221 355.1776531311524 635.5826778673028 345.7552060170634Q642.3480842075136 336.3550869767045 653.8470421784989 331.21963001878873Q665.3236720757542 326.0618449871429 679.4796708206177 326.0618449871429L679.4796708206177 326.0618449871429Q693.7919660815917 326.0618449871429 702.7008674998892 330.97402120775797Q711.6320969919166 335.88619742837307 715.8967590743598 343.678695160167Q720.1614211568028 351.471192891961 720.1614211568028 360.3131100890682L720.1614211568028 360.3131100890682Q720.1614211568028 367.85999900983137 717.3480838668142 375.3399037094044Q714.5347465768256 382.8198084089774 709.3099773239894 388.9377006110162Q704.0852080711534 395.033264739325 697.0072086987216 398.73972497851634Q689.9292093262899 402.42385714397767 681.3998851614036 402.42385714397767L681.3998851614036 402.42385714397767Q672.5579679642965 402.42385714397767 663.0908647027474 397.93591432423386L663.0908647027474 397.93591432423386Q660.9920257721209 405.81772435094814 659.3844044635559 413.92281511496304Q657.776783154991 422.050233952708 657.776783154991 430.5572300438642L657.776783154991 430.5572300438642Q657.776783154991 434.75490790511714 658.2680007770525 438.93025769263994L658.2680007770525 438.93025769263994Q655.521647708254 441.6542826877083 651.9044997639829 443.1056074801628Q648.2873518197118 444.55693227261725 644.7595161703609 444.55693227261725ZM670.4814571074 386.3476440583282L670.4814571074 386.3476440583282Q676.9119423416598 386.3476440583282 681.7348062673547 382.73049611405713Q686.5576701930495 379.113348169786 689.2147109669277 373.575985884729Q691.8494236670758 368.03862359967195 691.8494236670758 362.41194901969465L691.8494236670758 362.41194901969465Q691.8494236670758 355.8028391955943 687.6070896583627 350.66738223767857Q683.3424275759196 345.53192527976273 673.6966997245299 345.53192527976273L673.6966997245299 345.53192527976273Q672.401671448186 345.53192527976273 670.7270659184308 345.68822179587323Q669.0301323149456 345.8445183119837 667.2662144902702 346.1571113442046L667.2662144902702 346.1571113442046Q668.5389146928841 350.17616461561704 668.9408200200253 354.12823366583916Q669.3427253471666 358.05797464233126 669.3427253471666 361.7644348815227L669.3427253471666 361.7644348815227Q669.3427253471666 368.19492011578245 668.3826181767736 374.1341877279807Q667.4225110063807 380.09578341390903 666.1274827300367 385.87875450999684L666.1274827300367 385.87875450999684Q668.3826181767736 386.3476440583282 670.4814571074 386.3476440583282ZM747.3123588125663 444.55693227261725L747.3123588125663 444.55693227261725Q742.980712508933 444.55693227261725 738.8723469426004 442.3911091208006Q734.7863094499978 440.20295789525386 732.21858097104 435.380093969559Q729.628524418352 430.5572300438642 729.628524418352 423.010341123101L729.628524418352 423.010341123101Q729.628524418352 416.2672628566202 731.4817545379476 407.1797368484823Q733.3349846575434 398.09221084034436 735.6571043254705 388.2901864728442Q738.0015520671277 378.4881621053441 739.7654698918031 369.15502728617537Q741.5293877164786 359.8218924670067 741.3730912003681 352.5875965784644L741.3730912003681 352.5875965784644Q741.3730912003681 345.68822179587323 739.7654698918031 342.7855722109643L739.7654698918031 342.7855722109643L739.6091733756926 342.31668266263284Q741.3730912003681 337.158897630987 745.8833620938419 334.2785761198081Q750.3713049135857 331.37592653489924 755.3504653553911 331.37592653489924L755.3504653553911 331.37592653489924Q760.9771399353683 331.37592653489924 765.3980985339219 335.6405886173423Q769.8190571324756 339.9052506997854 769.8190571324756 349.86357158339604L769.8190571324756 349.86357158339604Q769.8190571324756 355.1776531311524 768.5463569298616 362.4789332408848Q767.2513286535176 369.8025414243474 765.4874108288423 378.0862567782028Q763.7234930041668 386.3476440583282 761.8702628845712 394.38575060115295Q760.0170327649754 402.42385714397767 758.7443325623615 409.1892634841885Q757.4493042860175 415.9323417506692 757.4493042860175 420.28631612803264L757.4493042860175 420.28631612803264Q757.4493042860175 424.77425894777645 758.7443325623615 426.47119255126165Q760.0170327649754 428.1457980810168 761.6246540735403 428.1457980810168L761.6246540735403 428.1457980810168Q763.3885718982158 428.1457980810168 764.9961932067807 426.7837855834826Q766.6038145153457 425.4217730859484 767.0950321374072 424.30536939944494L767.0950321374072 424.30536939944494L768.3900604137511 424.61796243166594Q768.2114358239106 430.4009335277537 765.085505501701 434.9112044212276Q761.9595751794914 439.3991472409714 757.2036954749867 441.9892037936593Q752.4701438442122 444.55693227261725 747.3123588125663 444.55693227261725ZM836.7139660277613 444.71322878872775L836.7139660277613 444.71322878872775Q831.087291447784 444.71322878872775 826.889613586531 441.00676854953633Q822.7142637990082 437.322636384075 822.7142637990082 428.94960873529925L822.7142637990082 428.94960873529925Q822.7142637990082 428.1457980810168 822.7142637990082 427.3419874267343Q822.7142637990082 426.53817677245183 822.8705603151187 425.73436611816936L822.8705603151187 425.73436611816936Q818.0476963894239 435.380093969559 812.0191164823053 439.9796771579532Q805.9905365751868 444.55693227261725 799.894972446878 444.55693227261725L799.894972446878 444.55693227261725Q794.2682978669008 444.55693227261725 789.2891374250954 440.6048632223951Q784.2876489095601 436.675122245903 781.2510308822707 428.94960873529925Q778.1920847812513 421.24642329842555 778.1920847812513 410.30566717069195L778.1920847812513 410.30566717069195Q778.1920847812513 399.05231801073734 781.3180151034609 390.21040081363014Q784.4662734994006 381.36848361652295 789.6017304573164 375.2729194882142Q794.7371874152321 369.15502728617537 800.855079617271 366.02909696396574Q806.9729718193098 362.8808385680261 812.7559429153976 362.8808385680261L812.7559429153976 362.8808385680261Q819.1864281496573 362.8808385680261 824.3218851075732 366.8329076182482Q829.4796701392189 370.7626485947403 831.3998844800049 379.29197275962656L831.3998844800049 379.29197275962656Q831.8911021020664 376.5456196908281 832.1143828393671 374.29048424409115Q832.3599916503979 372.0576768710843 832.3599916503979 371.25386621680184L832.3599916503979 371.25386621680184Q832.5162881665084 366.89989183943845 836.7809502489514 364.82338098254206Q841.0456123313946 362.7245420519156 846.1810692893104 362.7245420519156L846.1810692893104 362.7245420519156Q850.6913401827842 362.7245420519156 854.7103934541966 364.48845987659104Q858.7294467256089 366.2523777012664 860.1807715180634 370.45005556251937L860.1807715180634 370.45005556251937L860.4933645502844 371.4101627329123Q858.5731502094985 375.74180903654565 856.6306077949824 381.8597012385845Q854.7103934541966 387.9552653668932 853.1027721456317 394.6313594121837Q851.4951508370667 401.30745345747425 850.5350436666738 407.64862639681377Q849.5749364962808 414.0121274098833 849.5749364962808 418.83499133557814L849.5749364962808 418.83499133557814Q849.5749364962808 424.1267448096044 850.6913401827842 426.13627144531057Q851.8077438692877 428.1457980810168 853.4153651778526 428.1457980810168L853.4153651778526 428.1457980810168Q856.161718246651 428.1457980810168 858.416853693388 424.30536939944494L858.416853693388 424.30536939944494L859.6895538960019 424.9305554638869Q859.6895538960019 430.4009335277537 856.161718246651 434.9112044212276Q852.6115545235701 439.3991472409714 847.3198010495439 442.05618801484957Q842.0057195017874 444.71322878872775 836.7139660277613 444.71322878872775ZM810.5008074686606 424.30536939944494L810.5008074686606 424.30536939944494Q814.6761572561835 424.30536939944494 819.744629992909 416.825464699872Q824.8131027296346 409.345560000299 828.497234895096 395.368185845276L828.497234895096 395.368185845276Q828.832156001047 393.9168610528215 829.144749033268 392.5548485552873Q829.4796701392189 391.17050798402306 829.6359666553295 389.89780778140914L829.6359666553295 389.89780778140914Q827.0682381763716 383.9362120954808 824.2549008863829 381.4577959114432Q821.4415635963943 378.95705165367553 818.6952105275958 378.95705165367553L818.6952105275958 378.95705165367553Q814.6761572561835 378.95705165367553 811.2153058280229 383.22171373611866Q807.7767824735922 387.4863758185617 805.5886312480455 393.9168610528215Q803.4228080962289 400.3473462870813 803.4228080962289 406.77783152134106L803.4228080962289 406.77783152134106Q803.4228080962289 415.61974871844825 805.432334731935 419.95139502208156Q807.4418613676413 424.30536939944494 810.5008074686606 424.30536939944494ZM902.1352220568625 476.06184430574416L902.1352220568625 476.06184430574416Q894.0971155140377 476.06184430574416 889.1849392934226 471.149668085129Q884.2950911465375 466.259819938244 884.2950911465375 457.88679228946825L884.2950911465375 457.88679228946825Q884.2950911465375 453.55514598583494 885.8134001601821 448.33037673299884Q887.3540372475569 443.1056074801628 890.8818728969078 437.322636384075L890.8818728969078 437.322636384075Q883.0000628701936 436.83141876201347 877.9315901334679 432.00855483631864Q872.8854454704725 427.1856909106238 872.8854454704725 417.3836665431237L872.8854454704725 417.3836665431237Q872.8854454704725 411.6006954470359 874.4037544841171 404.9246014017454Q875.9220634977618 398.24850735645487 877.3733882902162 392.3762239654468Q878.8247130826708 386.5262686481688 878.8247130826708 383.3110260310389L878.8247130826708 383.3110260310389Q878.8247130826708 380.8995940681915 877.8646059122779 379.85017460287827Q876.9044987418848 378.80075513756503 875.6094704655409 378.80075513756503L875.6094704655409 378.80075513756503Q874.3144421891968 378.80075513756503 872.7961331755522 379.85017460287827Q871.2778241619076 380.8995940681915 870.474013507625 382.9761049250879L870.474013507625 382.9761049250879L867.7276604388267 380.09578341390903Q868.6877676092196 375.0942948983736 871.9030102263495 371.25386621680184Q875.1182528434794 367.3911094615 879.7848202530637 365.135974014763Q884.451387662648 362.8808385680261 889.4305481044534 362.8808385680261L889.4305481044534 362.8808385680261Q895.0572226844307 362.8808385680261 899.2325724719535 366.4979865122972Q903.4302503332063 370.11513445656834 903.4302503332063 379.6045657918475L903.4302503332063 379.6045657918475Q903.4302503332063 385.54383340404576 901.9789255407519 392.3762239654468Q900.5276007482975 399.20861452684784 899.076275955843 405.23719443396635Q897.6249511633886 411.26577434108486 897.6249511633886 414.8159380641658L897.6249511633886 414.8159380641658Q897.6249511633886 418.03118068129567 899.0092917346528 419.54948969494035Q900.3713042321871 421.09012678231505 902.1352220568625 421.09012678231505L902.1352220568625 421.09012678231505Q904.3903575035994 421.09012678231505 907.2706790147782 418.5893825245474Q910.1733285996871 416.0886382667797 912.741057078645 410.30566717069195Q915.308785557603 404.52269607460414 916.1125962118854 394.72067170710403L916.1125962118854 394.72067170710403Q916.4475173178365 391.6617256060846 916.6038138339469 386.92817397531Q916.7601103500573 382.1722942708054 916.9164068661679 378.0862567782028Q917.0950314560083 373.9778912118702 917.0950314560083 373.0177840414772L917.0950314560083 373.0177840414772Q917.0950314560083 367.2348129453895 921.3373654647215 364.89036520373224Q925.6020275471645 362.56824553580515 930.7598125788105 362.56824553580515L930.7598125788105 362.56824553580515Q935.2477553985542 362.56824553580515 939.2668086699666 364.33216336048054Q943.285861941379 366.096081185156 944.7371867338334 370.27143097267884L944.7371867338334 370.27143097267884L945.0497797660544 371.25386621680184Q943.62078304733 372.52656641941576 942.5713635820167 379.91715882406845Q941.5219441167036 387.3300793024513 940.0706193242492 399.6998321489093L940.0706193242492 399.6998321489093Q939.1105121538561 407.73793869173403 937.6591873614017 417.8748841651852Q936.2078625689472 427.98950156490633 933.7294463849097 438.1934312595477Q931.2287021271419 448.4196890279191 927.1426646345393 457.01599741399554Q923.0342990682067 465.61230580007197 916.9164068661679 470.83707505290806Q910.8208427378592 476.06184430574416 902.1352220568625 476.06184430574416ZM898.2724653015606 457.57419925724724L898.2724653015606 457.57419925724724Q903.2516257433659 457.57419925724724 907.2036947935879 448.48667324910934Q911.1334357700802 439.3991472409714 913.388571216817 422.69774809088L913.388571216817 422.69774809088Q903.0953292272553 435.87131159162055 899.2325724719535 443.41820051238375Q895.3921437903817 450.987417506877 895.3921437903817 454.35895664011736L895.3921437903817 454.35895664011736Q895.3921437903817 457.57419925724724 898.2724653015606 457.57419925724724ZM992.1620153364993 476.06184430574416L992.1620153364993 476.06184430574416Q984.2802053097851 476.06184430574416 979.1447483518692 471.39527689615977Q973.9869633202235 466.72870948657544 973.9869633202235 458.2217133954193L973.9869633202235 458.2217133954193Q973.9869633202235 449.04487509236105 980.4174485544831 436.675122245903L980.4174485544831 436.675122245903Q979.3010448679797 436.98771527812397 978.1846411814763 437.1663398679645Q977.0459094212428 437.322636384075 975.9295057347393 437.322636384075L975.9295057347393 437.322636384075Q966.5963709155707 437.322636384075 960.2551979762312 429.19521754633Q953.8916969631615 421.09012678231505 953.8916969631615 406.6215350052306L953.8916969631615 406.6215350052306Q953.8916969631615 393.5819399468705 958.9601696998872 383.62361906325987Q964.0286424366128 373.66529817964926 971.910452463327 368.03862359967195Q979.7922624900413 362.41194901969465 988.2992585811974 362.41194901969465L988.2992585811974 362.41194901969465Q994.2608542671256 362.41194901969465 999.0837181928206 365.38158282579377Q1003.9065821185153 368.3512166318929 1006.9432001458048 374.9379983822632L1006.9432001458048 374.9379983822632Q1007.1218247356453 373.33037707369823 1007.1218247356453 372.0576768710843Q1007.1218247356453 370.7626485947403 1007.1218247356453 369.6462449082369L1007.1218247356453 369.6462449082369Q1007.1218247356453 366.89989183943845 1011.2971745231681 365.135974014763Q1015.472524310691 363.3720561900876 1020.6079812686067 363.3720561900876L1020.6079812686067 363.3720561900876Q1025.274548678191 363.3720561900876 1029.2936019496033 365.135974014763Q1033.3126552210158 366.89989183943845 1034.6076834973596 371.0752416269613L1034.6076834973596 371.0752416269613L1034.9202765295809 372.0576768710843Q1033.4689517371262 373.33037707369823 1032.4418603455433 380.40837644613Q1031.39244088023 387.4863758185617 1029.9411160877753 400.01242518113025L1029.9411160877753 400.01242518113025Q1028.9810089173825 407.89423520784453 1027.5296841249278 417.9418683863754Q1026.0783593324736 427.98950156490633 1023.599943148436 438.1934312595477Q1021.0991988906683 448.4196890279191 1017.0801456192559 457.01599741399554Q1013.0610923478436 465.61230580007197 1006.9432001458048 470.83707505290806Q1000.847636017496 476.06184430574416 992.1620153364993 476.06184430574416ZM986.8479337887429 418.83499133557814L986.8479337887429 418.83499133557814Q991.5145011983273 418.83499133557814 997.2304880732248 411.1987901198947Q1002.9241468743922 403.56258890421117 1006.3180140813628 389.25029364323717L1006.3180140813628 389.25029364323717Q1003.4153644964539 382.9761049250879 1000.4457306903547 380.3190641512097Q997.4760968842555 377.6843514510616 994.4171507832361 377.6843514510616L994.4171507832361 377.6843514510616Q990.398097511824 377.6843514510616 986.8479337887429 381.703404722474Q983.3200981393921 385.72245799388634 981.1542749875754 391.90733441711535Q978.9884518357588 398.09221084034436 978.9884518357588 404.6789925907146L978.9884518357588 404.6789925907146Q978.9884518357588 411.44439893092544 981.2212592087656 415.1285310963868Q983.4763946555025 418.83499133557814 986.8479337887429 418.83499133557814ZM984.927719447957 457.57419925724724L984.927719447957 457.57419925724724Q990.398097511824 457.57419925724724 996.0917563129914 446.8790519405444Q1001.8077431878888 436.1839046238415 1004.0628786346259 416.7361524049517L1004.0628786346259 416.7361524049517Q991.8494223042783 433.30358311266264 987.0935425997736 442.21248453096Q982.3599909689991 451.1437140229875 982.3599909689991 454.8501742621789L982.3599909689991 454.8501742621789Q982.3599909689991 457.57419925724724 984.927719447957 457.57419925724724ZM1061.4460281209022 444.55693227261725L1061.4460281209022 444.55693227261725Q1055.6630570248144 444.55693227261725 1051.1527861313407 439.8010525681126Q1046.664843311597 435.0675009373381 1046.664843311597 426.3818802563414L1046.664843311597 426.3818802563414Q1046.664843311597 422.2065304688185 1047.6249504819898 416.89244892106217Q1048.5850576523826 411.6006954470359 1049.8800859287267 406.0410050882488Q1051.1527861313407 400.5036428031918 1052.1352213754637 395.5914665825767Q1053.0953285458568 390.7016184356916 1053.0953285458568 387.4863758185617L1053.0953285458568 387.4863758185617Q1053.0953285458568 384.1148366853214 1051.8896125644328 382.1053100496152Q1050.6838965830093 380.09578341390903 1048.7413541684932 380.09578341390903L1048.7413541684932 380.09578341390903Q1045.7047361412037 380.09578341390903 1042.489493524074 384.27113320143184L1042.489493524074 384.27113320143184L1041.507058279951 383.62361906325987Q1041.3507617638406 381.05589058430195 1042.6457900401847 377.50572686122104Q1043.9184902427983 373.9778912118702 1046.664843311597 370.67333629982005Q1049.3888683066652 367.3911094615 1053.6535303891083 365.135974014763Q1057.9181924715513 362.8808385680261 1063.701163567639 362.8808385680261L1063.701163567639 362.8808385680261Q1072.2304877325255 362.8808385680261 1076.0709164140972 367.7930147886412Q1079.9336731693993 372.6828629355262 1079.9336731693993 379.6045657918475L1079.9336731693993 379.6045657918475Q1079.9336731693993 380.7209694783509 1079.8666889482088 381.92668545977466Q1079.7773766532887 383.13240144119834 1079.621080137178 384.27113320143184L1079.621080137178 384.27113320143184Q1085.4040512332658 373.82159469575976 1091.7452241726055 368.26190433697263Q1098.1087251856752 362.7245420519156 1103.5791032495417 362.7245420519156L1103.5791032495417 362.7245420519156Q1108.7145602074577 362.7245420519156 1111.125992170305 366.74359532332795Q1113.5374241331524 370.7626485947403 1113.5374241331524 376.3893231747176L1113.5374241331524 376.3893231747176Q1113.5374241331524 381.5247801326334 1111.5278974974462 386.83886168038975Q1109.51837086174 392.1529432281461 1105.588629885248 395.5914665825767Q1101.6365608350259 399.05231801073734 1096.0098862550485 398.89602149462684L1096.0098862550485 398.89602149462684L1095.3623721168765 398.5834284624059Q1095.206075600766 394.38575060115295 1092.6383471218082 391.97431863830553Q1090.0706186428501 389.5628866754581 1086.8553760257205 389.5628866754581L1086.8553760257205 389.5628866754581Q1082.501401648357 389.5628866754581 1078.7279571879753 393.9168610528215Q1074.9545127275937 398.24850735645487 1074.9545127275937 406.44291041539003L1074.9545127275937 406.44291041539003Q1074.9545127275937 411.44439893092544 1076.0709164140972 417.2273700270132Q1077.2096481743308 423.010341123101 1077.2096481743308 427.02939439451336L1077.2096481743308 427.02939439451336Q1077.2096481743308 431.8522583202082 1074.9545127275937 435.87131159162055Q1072.6993772808569 439.8903648630329 1069.171541631506 442.21248453096Q1065.621377908425 444.55693227261725 1061.4460281209022 444.55693227261725ZM1153.4153638150551 445.0258218209487L1153.4153638150551 445.0258218209487Q1141.3582040008182 445.0258218209487 1133.4763939741038 440.20295789525386Q1125.5945839473898 435.380093969559 1121.8211394870082 427.43129972165457Q1118.0476950266263 419.4825054737501 1118.0476950266263 410.4619636868024L1118.0476950266263 410.4619636868024Q1118.0476950266263 401.9549675956462 1121.1736253488361 393.42564343076003Q1124.2995556710457 384.91864733960387 1130.3281355781642 377.9076321883623Q1136.3567154852826 370.9189451108508 1145.0423361662793 366.6542830284077Q1153.7279568472761 362.41194901969465 1164.9813060072306 362.41194901969465L1164.9813060072306 362.41194901969465Q1177.0384658214678 362.41194901969465 1184.8309635532617 367.30179716657966Q1192.6234612850558 372.2139733871948 1196.4192338191674 380.2520799300195Q1200.192678279549 388.2901864728442 1200.192678279549 397.4446967021724L1200.192678279549 397.4446967021724Q1200.192678279549 405.81772435094814 1197.1337321785295 414.25773622091407Q1194.07478607751 422.69774809088 1188.0462061703915 429.68643516839154Q1182.017626263273 436.675122245903 1173.3320055822765 440.85047203342583Q1164.6687129750096 445.0258218209487 1153.4153638150551 445.0258218209487ZM1157.7470101186884 431.36104069814667L1157.7470101186884 431.36104069814667Q1162.0786564223217 431.36104069814667 1164.9813060072306 426.87309787840286Q1167.8839555921395 422.362826984929 1169.3129523108641 415.3741399074175Q1170.7642771033184 408.385452829906 1170.7642771033184 401.15115694136375L1170.7642771033184 401.15115694136375Q1170.7642771033184 394.72067170710403 1169.5585611218949 389.0046848322064Q1168.352845140471 383.3110260310389 1165.9414131776236 379.69387808676777Q1163.5299812147762 376.0767301424967 1159.6672244594743 376.0767301424967L1159.6672244594743 376.0767301424967Q1155.4918746719516 376.0767301424967 1152.5222408658524 380.5646729622405Q1149.5526070597532 385.07494385571437 1148.1012822672988 391.97431863830553Q1146.6499574748443 398.89602149462684 1146.6499574748443 406.28661389927953L1146.6499574748443 406.28661389927953Q1146.6499574748443 412.7170991335393 1147.855673456268 418.43308600843693Q1149.0613894376916 424.1267448096044 1151.472821400539 427.7438927538755Q1153.8842533633865 431.36104069814667 1157.7470101186884 431.36104069814667ZM1230.8937796583932 444.55693227261725L1230.8937796583932 444.55693227261725Q1223.6594837698512 444.55693227261725 1218.747307549236 438.5953365866889Q1213.857459402351 432.65606897449067 1213.857459402351 422.69774809088L1213.857459402351 422.69774809088Q1213.857459402351 417.2273700270132 1215.1301596049648 410.9531813088639Q1216.4251878813088 404.6789925907146 1217.7202161576529 399.05231801073734L1217.7202161576529 399.05231801073734Q1218.8366198441563 394.8769682232145 1219.5511182035184 391.2598202789433Q1220.2879446366107 387.6426723346722 1220.2879446366107 385.3875368879353L1220.2879446366107 385.3875368879353Q1220.2879446366107 382.50721537675645 1219.082228655187 381.21218710041245Q1217.8765126737635 379.91715882406845 1216.2688913651982 379.91715882406845L1216.2688913651982 379.91715882406845Q1214.6612700566334 379.91715882406845 1213.0536487480686 380.9665782893817Q1211.4460274395035 382.0159977546949 1210.4859202691105 384.1148366853214L1210.4859202691105 384.1148366853214L1209.1908919927666 383.62361906325987Q1209.1908919927666 377.03683731288965 1212.4061346098965 372.37026990330526Q1215.6213772270264 367.7037024937209 1220.6005376688317 365.2922705308735Q1225.5796981106369 362.8808385680261 1230.737483142283 362.8808385680261L1230.737483142283 362.8808385680261Q1234.9128329298055 362.8808385680261 1238.7755896851077 364.5777721715113Q1242.6383464404094 366.2523777012664 1245.1167626244473 369.8025414243474Q1247.617506882215 373.33037707369823 1247.617506882215 378.6444586214546L1247.617506882215 378.6444586214546Q1247.617506882215 381.8597012385845 1246.7243839330122 386.3476440583282Q1245.8535890575395 390.8579149518021 1244.714857297306 395.68077887749695L1244.714857297306 395.68077887749695Q1243.5984536108026 400.6599393193023 1242.5490341454893 405.7284120560278Q1241.499614680176 410.7968847927534 1241.499614680176 414.6596415480553L1241.499614680176 414.6596415480553Q1241.499614680176 418.18747719740617 1242.6383464404094 420.4426126441431Q1243.7547501269128 422.69774809088 1246.00988557365 422.69774809088L1246.00988557365 422.69774809088Q1250.185235361173 422.69774809088 1255.4100046140088 414.9722345802763Q1260.6347738668446 407.2467210696725 1263.8500164839747 394.2294540850425L1263.8500164839747 394.2294540850425Q1264.4975306221468 391.6617256060846 1264.9664201704782 388.75907602117564Q1265.4576377925396 385.87875450999684 1265.4576377925396 382.8198084089774L1265.4576377925396 382.8198084089774Q1265.4576377925396 380.40837644613 1265.1450447603188 377.9076321883623Q1264.8101236543675 375.42921600432464 1264.162609516196 372.8614875253668L1264.162609516196 372.8614875253668L1264.162609516196 371.7227557651333Q1266.7526660688836 367.3911094615 1270.8387035614865 365.135974014763Q1274.9470691278188 362.8808385680261 1279.1224189153418 362.8808385680261L1279.1224189153418 362.8808385680261Q1284.749093495319 362.8808385680261 1289.259364388793 366.74359532332795Q1293.7473072085368 370.60635207862987 1293.7473072085368 377.99694448328256L1293.7473072085368 377.99694448328256Q1293.7473072085368 382.32859078691587 1292.1396858999715 388.0445776618135Q1290.5320645914067 393.76056453671106 1288.611850250621 399.85612866501975L1288.611850250621 399.85612866501975Q1286.669307836105 405.81772435094814 1285.0616865275401 411.6006954470359Q1283.4540652189748 417.3836665431237 1283.4540652189748 421.8939374365976L1283.4540652189748 421.8939374365976Q1283.4540652189748 428.48071918696786 1288.1206326285592 428.48071918696786L1288.1206326285592 428.48071918696786Q1289.4156609049032 428.48071918696786 1291.2688910244992 427.7438927538755Q1293.0997930703647 427.02939439451336 1294.7074143789296 424.77425894777645L1294.7074143789296 424.77425894777645L1295.846146139163 425.10918005372747Q1295.846146139163 430.8921511498152 1292.6978877432234 435.31310974836884Q1289.5719574210138 439.7340683469224 1284.749093495319 442.14550030976983Q1279.9262295696244 444.55693227261725 1274.7907726117082 444.55693227261725L1274.7907726117082 444.55693227261725Q1268.1816627876078 444.55693227261725 1262.956893534772 439.7340683469224Q1257.7321242819362 434.9112044212276 1257.7321242819362 423.9704482934939L1257.7321242819362 423.9704482934939L1257.7321242819362 423.65785526127297Q1251.1453425315658 434.9112044212276 1244.067343159134 439.7340683469224Q1237.0116718604322 444.55693227261725 1230.8937796583932 444.55693227261725ZM1323.0194118686568 444.4006357565068L1323.0194118686568 444.4006357565068Q1317.0578161827284 444.4006357565068 1312.2349522570335 439.64475605200215Q1307.412088331339 434.9112044212276 1307.412088331339 426.3818802563414L1307.412088331339 426.3818802563414Q1307.412088331339 422.2065304688185 1308.5508200915724 416.89244892106217Q1309.6672237780758 411.6006954470359 1311.02923627561 406.1303173831691Q1312.391248773144 400.6599393193023 1313.5299805333775 395.83707539360745Q1314.646384219881 391.0142114679126 1314.646384219881 387.9552653668932L1314.646384219881 387.9552653668932Q1314.646384219881 384.7400227497633 1313.373684017267 382.90912070389766Q1312.0786557409228 381.05589058430195 1309.9798168102966 381.05589058430195L1309.9798168102966 381.05589058430195Q1307.2557918152283 381.05589058430195 1304.0405491980982 384.27113320143184L1304.0405491980982 384.27113320143184L1303.0804420277054 383.62361906325987Q1302.9241455115948 381.05589058430195 1304.1968457142088 377.50572686122104Q1305.491873990553 373.9778912118702 1308.148914764431 370.67333629982005Q1310.7836274645792 367.3911094615 1314.9813053258322 365.135974014763Q1319.1566551133546 362.8808385680261 1324.9396262094424 362.8808385680261L1324.9396262094424 362.8808385680261Q1333.4689503743289 362.8808385680261 1337.5549878669317 367.7930147886412Q1341.663353433264 372.6828629355262 1341.663353433264 379.760862307958L1341.663353433264 379.760862307958Q1341.663353433264 382.32859078691587 1341.1721358112027 384.7400227497633L1341.1721358112027 384.7400227497633Q1344.543674944443 379.760862307958 1349.5451634599785 374.6923895712324Q1354.5243239017836 369.6462449082369 1360.552903808902 366.2523777012664Q1366.5814837160206 362.8808385680261 1373.0119689502803 362.8808385680261L1373.0119689502803 362.8808385680261Q1380.5588578710435 362.8808385680261 1383.3052109398418 367.7037024937209Q1386.0292359349105 372.52656641941576 1386.0292359349105 379.760862307958L1386.0292359349105 379.760862307958Q1386.0292359349105 386.5262686481688 1384.5779111424558 394.2294540850425Q1383.1265863500016 401.9549675956462 1381.697589631277 409.0999511892682Q1380.2462648388228 416.2672628566202 1380.2462648388228 421.09012678231505L1380.2462648388228 421.09012678231505Q1380.2462648388228 427.52061201657483 1383.9303970042843 427.52061201657483L1383.9303970042843 427.52061201657483Q1385.8729394188 427.52061201657483 1387.3242642112546 426.31489603515115Q1388.7532609299788 425.10918005372747 1389.2444785520402 423.9704482934939L1389.2444785520402 423.9704482934939L1390.3608822385436 424.46166591555544Q1390.3608822385436 430.4009335277537 1387.0786554002234 434.9112044212276Q1383.7741004881736 439.3991472409714 1378.794940046368 441.89989149873907Q1373.815779604563 444.4006357565068 1368.6579945729168 444.4006357565068L1368.6579945729168 444.4006357565068Q1362.4061339284976 444.4006357565068 1357.5832700028031 440.04666137914336Q1352.7604060771082 435.71501507551005 1352.7604060771082 425.9129907080099L1352.7604060771082 425.9129907080099Q1352.7604060771082 420.10769153819206 1354.278715090753 413.36461327171133Q1355.7970241043977 406.6215350052306 1357.248348896852 400.3473462870813Q1358.6996736893066 394.073157568932 1358.6996736893066 390.05410429751964L1358.6996736893066 390.05410429751964Q1358.6996736893066 387.6426723346722 1357.8065507401038 386.28065983713805Q1356.9357558646311 384.91864733960387 1354.6806204178943 384.91864733960387L1354.6806204178943 384.91864733960387Q1350.9741601787027 384.91864733960387 1346.553201580149 388.2901864728442Q1342.1322429815955 391.6617256060846 1339.006312659386 397.2884001860619Q1335.8803823371763 402.9150747660392 1335.8803823371763 409.6581530325199L1335.8803823371763 409.6581530325199Q1335.8803823371763 414.0121274098833 1336.9074737287597 418.03118068129567Q1337.9568931940726 422.050233952708 1337.9568931940726 426.7168013622924L1337.9568931940726 426.7168013622924Q1337.9568931940726 435.380093969559 1333.4689503743289 439.8903648630329Q1328.9586794808552 444.4006357565068 1323.0194118686568 444.4006357565068ZM1421.888122345401 444.55693227261725L1421.888122345401 444.55693227261725Q1416.0828231755827 444.55693227261725 1411.0366785125875 440.5378790012049Q1405.9682057758619 436.5188257297925 1402.8199473799223 428.7933122191888Q1399.6940170577127 421.09012678231505 1399.6940170577127 410.14937065458145L1399.6940170577127 410.14937065458145Q1399.6940170577127 398.89602149462684 1402.9092596748424 390.05410429751964Q1406.124502291972 381.21218710041245 1411.3492715448083 375.02731067718344Q1416.5740407976446 368.8424342539544 1422.7589172208736 365.62719163682453Q1428.9437936441022 362.41194901969465 1434.9053893300306 362.41194901969465L1434.9053893300306 362.41194901969465Q1441.492171080401 362.41194901969465 1446.6276280383167 366.4979865122972Q1451.7854130699625 370.60635207862987 1453.7056274107485 379.29197275962656L1453.7056274107485 379.29197275962656Q1455.1569522032028 371.25386621680184 1456.206371668516 363.9302580333393Q1457.2557911338295 356.6066498498768 1457.2557911338295 350.9799752698995L1457.2557911338295 350.9799752698995Q1457.2557911338295 343.58938286524676 1455.3132487193134 340.2178437320064L1455.3132487193134 340.2178437320064L1455.3132487193134 339.25773656161346Q1459.019708958505 335.0823867740906 1463.4406675570585 333.0728601383844Q1467.8616261556122 331.06333350267823 1471.8806794270245 331.06333350267823L1471.8806794270245 331.06333350267823Q1477.1724329010508 331.06333350267823 1480.8788931402423 334.3455603409983Q1484.5853533794334 337.6501152530485 1484.5853533794334 343.74567938135726L1484.5853533794334 343.74567938135726Q1484.5853533794334 347.1395465883277 1483.4466216192 353.72632833869795Q1482.3302179326965 360.3131100890682 1480.7225966241317 368.75312195903416Q1479.1149753155669 377.1931338290001 1477.4180417120815 386.12436332102754Q1475.7434361823266 395.033264739325 1474.6047044220927 403.16068357706996Q1473.4883007355893 411.26577434108486 1473.4883007355893 417.2273700270132L1473.4883007355893 417.2273700270132Q1473.4883007355893 422.2065304688185 1474.5377202009026 425.17616427491765Q1475.564811592486 428.1457980810168 1477.976243555333 428.1457980810168L1477.976243555333 428.1457980810168Q1479.762489453739 428.1457980810168 1481.5933914996044 426.9400820995931Q1483.4466216192 425.73436611816936 1484.094135757372 424.1267448096044L1484.094135757372 424.1267448096044L1485.2105394438754 424.9305554638869Q1485.2105394438754 430.24463701164325 1481.8390003106351 434.6655956101968Q1478.4674611773949 439.08655420875044 1473.3320042194791 441.8105792038188Q1468.1742191878334 444.55693227261725 1462.7038411239664 444.55693227261725L1462.7038411239664 444.55693227261725Q1456.764573511768 444.55693227261725 1453.3037220836072 441.2523773605671Q1449.8428706554469 437.970150522247 1448.4138739367222 432.81236549060117Q1446.962549144268 427.67690853268533 1446.8062526281574 422.2065304688185L1446.8062526281574 422.2065304688185Q1441.8047641126223 433.7724726609941 1435.1509981410618 439.1758665036707Q1428.4749040957709 444.55693227261725 1421.888122345401 444.55693227261725ZM1432.6502538832938 424.1267448096044L1432.6502538832938 424.1267448096044Q1436.8256036708167 424.1267448096044 1441.9833887024624 416.5798558888412Q1447.1188456603782 409.03296696807803 1450.9816024156803 394.56437519099353L1450.9816024156803 394.56437519099353L1451.941709586073 389.5628866754581Q1449.3739811071155 383.62361906325987 1446.404347301016 381.1228748054922Q1443.412385421187 378.6444586214546 1440.6883604261188 378.6444586214546L1440.6883604261188 378.6444586214546Q1436.669307154706 378.6444586214546 1433.1414715053556 383.06541722000816Q1429.5913077822743 387.4863758185617 1427.425484630458 394.31876637996277Q1425.2596614786412 401.15115694136375 1425.2596614786412 408.698045862127L1425.2596614786412 408.698045862127Q1425.2596614786412 415.9323417506692 1427.3361723355374 420.0407073170019Q1429.435011266164 424.1267448096044 1432.6502538832938 424.1267448096044Z " fill="purple" transform="matrix(0.5891420657023813,0,0,0.5891420657023813,0,63.7176059569985)"/></g></svg>